<svg width="467" height="63" viewBox="0 0 467 63" fill="none" xmlns="http://www.w3.org/2000/svg">
<rect width="466.165" height="62.6192" rx="6.95769" transform="matrix(1 0 0 -1 0 62.6191)" fill="#167952"/>
<path d="M197.75 22.5H202.7V36.075H211.05V40H197.75V22.5ZM219.535 40.225C218.085 40.225 216.777 39.925 215.61 39.325C214.443 38.725 213.527 37.8917 212.86 36.825C212.21 35.7583 211.885 34.55 211.885 33.2C211.885 31.8667 212.21 30.6667 212.86 29.6C213.527 28.5333 214.435 27.7083 215.585 27.125C216.752 26.525 218.068 26.225 219.535 26.225C221.002 26.225 222.318 26.525 223.485 27.125C224.652 27.7083 225.56 28.5333 226.21 29.6C226.86 30.65 227.185 31.85 227.185 33.2C227.185 34.55 226.86 35.7583 226.21 36.825C225.56 37.8917 224.652 38.725 223.485 39.325C222.318 39.925 221.002 40.225 219.535 40.225ZM219.535 36.45C220.368 36.45 221.052 36.1667 221.585 35.6C222.118 35.0167 222.385 34.2167 222.385 33.2C222.385 32.2 222.118 31.4167 221.585 30.85C221.052 30.2833 220.368 30 219.535 30C218.702 30 218.018 30.2833 217.485 30.85C216.952 31.4167 216.685 32.2 216.685 33.2C216.685 34.2167 216.952 35.0167 217.485 35.6C218.018 36.1667 218.702 36.45 219.535 36.45ZM243.96 26.45V37.525C243.96 40.0417 243.277 41.925 241.91 43.175C240.544 44.4417 238.577 45.075 236.01 45.075C234.677 45.075 233.427 44.925 232.26 44.625C231.094 44.325 230.102 43.8833 229.285 43.3L231.01 39.975C231.56 40.425 232.252 40.775 233.085 41.025C233.935 41.2917 234.769 41.425 235.585 41.425C236.835 41.425 237.752 41.15 238.335 40.6C238.919 40.05 239.21 39.2333 239.21 38.15V37.7C238.294 38.7667 236.952 39.3 235.185 39.3C233.985 39.3 232.877 39.0333 231.86 38.5C230.844 37.95 230.035 37.1833 229.435 36.2C228.835 35.2 228.535 34.05 228.535 32.75C228.535 31.4667 228.835 30.3333 229.435 29.35C230.035 28.35 230.844 27.5833 231.86 27.05C232.877 26.5 233.985 26.225 235.185 26.225C237.119 26.225 238.535 26.85 239.435 28.1V26.45H243.96ZM236.31 35.525C237.16 35.525 237.86 35.2667 238.41 34.75C238.977 34.2333 239.26 33.5667 239.26 32.75C239.26 31.9333 238.985 31.275 238.435 30.775C237.885 30.2583 237.177 30 236.31 30C235.444 30 234.727 30.2583 234.16 30.775C233.61 31.275 233.335 31.9333 233.335 32.75C233.335 33.5667 233.619 34.2333 234.185 34.75C234.752 35.2667 235.46 35.525 236.31 35.525ZM247.012 26.45H251.762V40H247.012V26.45ZM249.387 24.95C248.521 24.95 247.821 24.7083 247.287 24.225C246.754 23.7417 246.487 23.1417 246.487 22.425C246.487 21.7083 246.754 21.1083 247.287 20.625C247.821 20.1417 248.521 19.9 249.387 19.9C250.254 19.9 250.954 20.1333 251.487 20.6C252.021 21.05 252.287 21.6333 252.287 22.35C252.287 23.1 252.021 23.725 251.487 24.225C250.954 24.7083 250.254 24.95 249.387 24.95ZM263.674 26.225C265.358 26.225 266.708 26.725 267.724 27.725C268.758 28.725 269.274 30.2333 269.274 32.25V40H264.524V33.025C264.524 31.175 263.783 30.25 262.299 30.25C261.483 30.25 260.824 30.5167 260.324 31.05C259.841 31.5833 259.599 32.3833 259.599 33.45V40H254.849V26.45H259.374V27.925C259.908 27.375 260.541 26.9583 261.274 26.675C262.008 26.375 262.808 26.225 263.674 26.225Z" fill="white"/>
</svg>
