<svg width="1512" height="106" viewBox="0 0 1512 106" fill="none" xmlns="http://www.w3.org/2000/svg">
<rect width="1512" height="106" fill="#241F35"/>
<path d="M173.858 53.0703L168.461 68.3339H163.823L158.342 53.0703H162.558L165.341 62.3465L166.184 65.3824L167.028 62.4309L169.895 53.1546H173.858V53.0703Z" fill="#3CCB93"/>
<path d="M179.762 68.5868C178.497 68.5868 177.401 68.3338 176.473 67.8278C175.545 67.3218 174.786 66.6472 174.28 65.8039C173.774 64.8763 173.521 63.8643 173.521 62.5151C173.521 61.2501 173.774 60.1538 174.28 59.2262C174.786 58.2986 175.461 57.624 176.389 57.2023C177.316 56.6963 178.328 56.4434 179.509 56.4434C180.689 56.4434 181.786 56.6963 182.629 57.118C183.472 57.624 184.147 58.2143 184.569 59.0576C184.99 59.9009 185.243 60.8285 185.243 61.9248C185.243 62.1777 185.243 62.5151 185.243 62.768C185.243 63.021 185.243 63.274 185.159 63.4427H175.967V61.3344H183.388L181.448 62.0934C181.448 61.1658 181.28 60.4912 180.942 59.9852C180.605 59.4792 180.099 59.2262 179.425 59.2262C178.919 59.2262 178.497 59.3106 178.16 59.5635C177.822 59.8165 177.569 60.1538 177.401 60.6598C177.232 61.1658 177.148 61.7561 177.148 62.5151C177.148 63.274 177.232 63.8643 177.485 64.3703C177.654 64.7919 177.991 65.2136 178.328 65.3823C178.666 65.6352 179.172 65.7196 179.678 65.7196C180.268 65.7196 180.689 65.6352 181.111 65.3823C181.448 65.1293 181.701 64.7919 181.87 64.3703L184.99 65.4666C184.737 66.1412 184.4 66.6472 183.894 67.1532C183.388 67.5748 182.713 67.9121 182.039 68.1651C181.364 68.5024 180.521 68.5868 179.762 68.5868Z" fill="#3CCB93"/>
<path d="M187.52 68.3334V56.7803H190.977L191.146 59.3102C191.399 58.4669 191.905 57.7923 192.495 57.2863C193.085 56.7803 193.844 56.5273 194.688 56.5273C194.94 56.5273 195.193 56.5273 195.446 56.6117C195.615 56.696 195.784 56.696 195.952 56.7803L195.531 59.9848C195.362 59.9005 195.193 59.9005 194.941 59.8162C194.688 59.8162 194.435 59.7318 194.097 59.7318C193.676 59.7318 193.17 59.8162 192.832 60.0692C192.411 60.2378 192.073 60.5751 191.905 60.9968C191.652 61.4184 191.567 61.9244 191.567 62.5147V68.3334H187.52V68.3334Z" fill="#3CCB93"/>
<path d="M201.603 68.2499C200.675 68.2499 199.832 67.9969 199.073 67.5753C198.314 67.0693 197.808 66.3947 197.386 65.5514C196.965 64.6238 196.796 63.6118 196.796 62.3469C196.796 61.0819 196.965 59.9856 197.386 59.058C197.808 58.1304 198.398 57.4558 199.073 57.0341C199.832 56.5282 200.675 56.2752 201.603 56.2752C202.615 56.2752 203.458 56.6125 204.133 57.2028C204.807 57.8774 205.144 58.6364 205.397 59.6483L205.06 60.1543V51.5527H209.024V68.0813H205.482L205.229 64.1178L205.65 64.4551C205.566 65.214 205.313 65.8887 204.976 66.479C204.639 67.0693 204.133 67.4909 203.542 67.8282C202.952 68.0812 202.362 68.2499 201.603 68.2499ZM202.952 65.3827C203.374 65.3827 203.795 65.2984 204.133 65.0454C204.47 64.7924 204.723 64.4551 204.892 63.9491C205.06 63.4431 205.144 62.8528 205.144 62.1782C205.144 61.5036 205.06 60.9976 204.892 60.4916C204.723 60.07 204.47 59.6483 204.133 59.4797C203.795 59.2267 203.458 59.1424 202.952 59.1424C202.277 59.1424 201.771 59.3953 201.35 59.9013C200.928 60.4073 200.759 61.1662 200.759 62.2625C200.759 63.3588 200.928 64.1178 201.35 64.6238C201.771 65.1297 202.277 65.3827 202.952 65.3827Z" fill="#3CCB93"/>
<path d="M217.456 68.2508C216.191 68.2508 215.095 67.9978 214.167 67.4919C213.24 66.9859 212.481 66.3113 211.975 65.468C211.469 64.5403 211.216 63.5284 211.216 62.1791C211.216 60.9142 211.469 59.8179 211.975 58.8903C212.481 57.9627 213.155 57.288 214.083 56.8664C215.011 56.3604 216.023 56.1074 217.203 56.1074C218.384 56.1074 219.48 56.3604 220.323 56.782C221.167 57.288 221.841 57.8783 222.263 58.7216C222.685 59.5649 222.938 60.4925 222.938 61.5888C222.938 61.8418 222.938 62.1791 222.938 62.4321C222.938 62.6851 222.938 62.9381 222.853 63.1067H213.661V60.9985H221.082L219.143 61.7575C219.143 60.8299 218.974 60.1552 218.637 59.6493C218.299 59.1433 217.793 58.8903 217.119 58.8903C216.613 58.8903 216.191 58.9746 215.854 59.2276C215.517 59.4806 215.264 59.8179 215.095 60.3239C214.926 60.8299 214.842 61.4202 214.842 62.1791C214.842 62.9381 214.926 63.5284 215.179 64.0344C215.348 64.456 215.685 64.8777 216.023 65.0463C216.36 65.2993 216.866 65.3836 217.372 65.3836C217.962 65.3836 218.384 65.2993 218.805 65.0463C219.143 64.7933 219.396 64.456 219.564 64.0344L222.685 65.1307C222.432 65.8053 222.094 66.3113 221.588 66.8172C221.082 67.2389 220.408 67.5762 219.733 67.8292C219.058 68.1665 218.299 68.2508 217.456 68.2508Z" fill="#3CCB93"/>
<path d="M225.468 68.3339V53.0703H232.889C234.744 53.0703 236.178 53.4076 237.021 54.1666C237.948 54.8412 238.37 55.8532 238.37 57.2024C238.37 58.0457 238.117 58.8047 237.611 59.395C237.105 59.9853 236.346 60.4069 235.25 60.5756C236.431 60.7443 237.274 61.1659 237.864 61.7562C238.454 62.4308 238.707 63.1898 238.707 64.1174C238.707 65.4667 238.286 66.4787 237.358 67.1533C236.431 67.9123 235.081 68.2496 233.226 68.2496H225.468V68.3339ZM229.347 59.3107H232.214C233.648 59.3107 234.322 58.7204 234.322 57.6241C234.322 56.5278 233.648 55.9375 232.214 55.9375H229.347V59.3107ZM229.347 65.551H232.636C233.395 65.551 233.901 65.3824 234.238 65.1294C234.575 64.8764 234.744 64.3704 234.744 63.8644C234.744 63.3585 234.575 62.9368 234.238 62.5995C233.901 62.3465 233.31 62.1778 232.636 62.1778H229.347V65.551Z" fill="white"/>
<path d="M246.551 56.5273C247.731 56.5273 248.827 56.7803 249.755 57.202C250.683 57.7079 251.357 58.3826 251.948 59.2259C252.454 60.1535 252.707 61.2498 252.707 62.5147C252.707 63.7797 252.454 64.8759 251.948 65.8035C251.442 66.7312 250.683 67.4058 249.755 67.8274C248.827 68.3334 247.731 68.5021 246.551 68.5021C245.37 68.5021 244.274 68.2491 243.346 67.8274C242.418 67.3215 241.659 66.6468 241.153 65.8035C240.648 64.9603 240.395 63.7797 240.395 62.5147C240.395 61.2498 240.648 60.1535 241.153 59.2259C241.659 58.2982 242.418 57.6236 243.346 57.202C244.274 56.7803 245.37 56.5273 246.551 56.5273ZM246.551 59.3102C246.129 59.3102 245.707 59.3945 245.37 59.6475C245.033 59.9005 244.78 60.2378 244.611 60.6595C244.442 61.1654 244.358 61.7558 244.358 62.5147C244.358 63.2737 244.442 63.864 244.611 64.3699C244.78 64.8759 245.033 65.2132 245.37 65.3819C245.707 65.6349 246.045 65.7192 246.551 65.7192C246.972 65.7192 247.394 65.6349 247.731 65.3819C248.068 65.1289 248.321 64.7916 248.49 64.3699C248.659 63.864 248.743 63.2737 248.743 62.5147C248.743 61.7558 248.659 61.1654 248.49 60.6595C248.321 60.1535 248.068 59.8162 247.731 59.6475C247.394 59.4788 246.972 59.3102 246.551 59.3102Z" fill="white"/>
<path d="M260.38 56.5273C261.56 56.5273 262.657 56.7803 263.584 57.202C264.512 57.7079 265.186 58.3826 265.777 59.2259C266.283 60.1535 266.536 61.2498 266.536 62.5147C266.536 63.7797 266.283 64.8759 265.777 65.8035C265.271 66.7312 264.512 67.4058 263.584 67.8274C262.657 68.3334 261.56 68.5021 260.38 68.5021C259.199 68.5021 258.103 68.2491 257.175 67.8274C256.248 67.3215 255.489 66.6468 254.983 65.8035C254.477 64.9603 254.224 63.7797 254.224 62.5147C254.224 61.2498 254.477 60.1535 254.983 59.2259C255.489 58.2982 256.248 57.6236 257.175 57.202C258.187 56.7803 259.199 56.5273 260.38 56.5273ZM260.38 59.3102C259.958 59.3102 259.536 59.3945 259.199 59.6475C258.862 59.9005 258.609 60.2378 258.44 60.6595C258.271 61.1654 258.187 61.7558 258.187 62.5147C258.187 63.2737 258.271 63.864 258.44 64.3699C258.609 64.8759 258.862 65.2132 259.199 65.3819C259.536 65.6349 259.874 65.7192 260.38 65.7192C260.801 65.7192 261.223 65.6349 261.56 65.3819C261.898 65.1289 262.151 64.7916 262.319 64.3699C262.488 63.864 262.572 63.2737 262.572 62.5147C262.572 61.7558 262.488 61.1654 262.319 60.6595C262.151 60.1535 261.898 59.8162 261.56 59.6475C261.307 59.4788 260.886 59.3102 260.38 59.3102Z" fill="white"/>
<path d="M272.692 51.8906V68.4191H268.729V51.8906H272.692ZM281.462 56.7817L275.896 62.6847L275.138 62.8534L271.849 66.5639V62.5161L277.077 56.6974H281.462V56.7817ZM276.571 60.2392L281.8 68.3348H277.414L273.957 62.5161L276.571 60.2392Z" fill="white"/>
<path d="M287.956 68.5864C286.775 68.5864 285.764 68.4178 284.752 67.9961C283.74 67.6588 282.896 67.0685 282.222 66.3938L284.077 64.2013C284.499 64.7073 285.005 65.1289 285.595 65.4662C286.269 65.8036 286.944 65.9722 287.703 65.9722C288.209 65.9722 288.631 65.8879 288.884 65.8035C289.221 65.6349 289.305 65.4662 289.305 65.1289C289.305 64.8759 289.221 64.7073 289.052 64.6229C288.884 64.4543 288.631 64.3699 288.125 64.2856L286.522 63.9483C285.089 63.6953 283.993 63.1893 283.402 62.599C282.812 62.0087 282.475 61.2498 282.475 60.3222C282.475 59.6475 282.643 59.0572 283.065 58.5512C283.487 57.9609 284.077 57.5393 284.836 57.1176C285.679 56.7803 286.691 56.5273 287.872 56.5273C289.052 56.5273 290.064 56.696 290.992 57.0333C291.919 57.3706 292.594 57.8766 293.184 58.5512L291.245 60.6595C290.908 60.1535 290.402 59.8162 289.811 59.5632C289.221 59.3102 288.631 59.1416 288.04 59.1416C287.703 59.1416 287.366 59.1415 287.113 59.2259C286.86 59.3102 286.691 59.3945 286.522 59.5632C286.438 59.7319 286.354 59.8162 286.354 59.9848C286.354 60.1535 286.438 60.3221 286.607 60.4908C286.775 60.6595 287.197 60.7438 287.703 60.9124L289.811 61.3341C290.992 61.5871 291.835 61.9244 292.341 62.5147C292.847 63.105 293.1 63.7797 293.1 64.6229C293.1 65.3819 292.931 66.0565 292.51 66.6468C292.088 67.2371 291.498 67.7431 290.739 68.0804C290.149 68.4177 289.137 68.5864 287.956 68.5864Z" fill="white"/>
<path d="M104.287 73.5621C105.636 70.7792 106.985 68.165 108.25 65.4665C109.6 62.6836 110.949 59.8164 112.382 57.0336C116.599 48.938 125.622 44.5529 134.73 46.0708C143.584 47.5887 150.499 54.7567 151.764 63.6956C153.535 75.9233 143.669 87.4764 130.85 87.3077C124.694 87.2234 119.635 84.9465 115.418 80.4771C114.828 79.8024 114.659 79.2965 115.081 78.4532C116.599 75.4173 117.948 72.2971 119.382 69.2613C119.55 68.924 119.719 68.671 119.972 68.165C120.394 69.2613 120.647 70.1889 121.153 71.1165C123.261 75.1643 126.634 77.3569 131.188 77.2726C135.657 77.1882 139.03 74.9957 140.97 70.8635C143.416 65.6351 141.139 59.3948 135.995 56.7806C130.766 54.1664 124.273 56.0216 121.49 61.1657C120.309 63.2739 119.382 65.5508 118.37 67.8277C115.418 74.068 112.467 80.3927 109.515 86.6331C109.347 86.9704 108.841 87.2234 108.419 87.2234C105.552 87.3077 102.769 87.3077 99.9017 87.2234C99.48 87.2234 98.8897 86.7174 98.7211 86.2114C96.2755 80.983 93.9143 75.7546 91.4688 70.5262C87.9269 62.768 84.3851 55.094 80.8433 47.3357C80.5903 46.8297 80.4216 46.3238 80 45.4805C83.0358 45.6491 85.9031 45.5648 88.6859 46.0708C90.7941 46.4081 92.2277 48.0103 93.1554 49.9499C95.0106 53.9977 96.9502 57.9612 98.8054 62.009C100.408 65.4665 102.094 68.924 103.696 72.4658C103.865 72.8874 104.034 73.1404 104.287 73.5621Z" fill="white"/>
<path d="M110.189 57.6241C110.189 49.2755 110.189 41.1799 110.189 33C112.551 33 114.575 33.6746 116.345 35.1082C118.791 37.1321 119.972 39.7463 120.14 42.9508C120.309 45.4807 119.887 47.2516 117.442 48.6852C114.575 50.2875 112.551 53.0703 111.033 56.0218C110.78 56.5278 110.611 56.9495 110.189 57.6241Z" fill="#3CCB93"/>
<path d="M1344.17 72.0938H1338.1C1338.1 73.5351 1339.47 74.7144 1341.14 74.7144C1342.81 74.7144 1344.17 73.5351 1344.17 72.0938Z" fill="white"/>
<path d="M1351.76 68.1617H1351C1349.94 67.2445 1348.73 65.9341 1348.73 64.2307V60.2997C1348.73 56.6308 1345.39 53.748 1341.14 53.748C1336.89 53.748 1333.55 56.6308 1333.55 60.2997V64.2307C1333.55 65.9341 1332.33 67.2445 1331.27 68.1617H1330.51C1329.6 68.1617 1328.99 68.6858 1328.99 69.472C1328.99 70.2582 1329.6 70.7824 1330.51 70.7824H1351.76C1352.67 70.7824 1353.28 70.2582 1353.28 69.472C1353.28 68.6858 1352.67 68.1617 1351.76 68.1617Z" fill="white"/>
<circle cx="1351.41" cy="53.3413" r="9.34132" fill="#FD0000"/>
<path d="M1353.96 55.5712V56.8027H1348.5V55.7518L1351.08 52.9878C1351.34 52.6995 1351.55 52.4459 1351.69 52.2269C1351.84 52.0044 1351.95 51.8055 1352.02 51.6303C1352.09 51.4515 1352.12 51.2819 1352.12 51.1213C1352.12 50.8805 1352.08 50.6743 1352 50.5028C1351.92 50.3277 1351.8 50.1927 1351.65 50.0978C1351.49 50.0029 1351.3 49.9555 1351.08 49.9555C1350.84 49.9555 1350.63 50.0139 1350.45 50.1306C1350.28 50.2474 1350.15 50.4098 1350.06 50.6178C1349.97 50.8258 1349.93 51.0611 1349.93 51.3238H1348.35C1348.35 50.8495 1348.46 50.4152 1348.68 50.0212C1348.91 49.6234 1349.23 49.3078 1349.64 49.0743C1350.05 48.8371 1350.54 48.7185 1351.11 48.7185C1351.67 48.7185 1352.14 48.8097 1352.52 48.9922C1352.91 49.171 1353.2 49.43 1353.4 49.7694C1353.6 50.1051 1353.7 50.5065 1353.7 50.9735C1353.7 51.2363 1353.66 51.4935 1353.57 51.7453C1353.49 51.9934 1353.37 52.2415 1353.21 52.4897C1353.06 52.7342 1352.87 52.9823 1352.65 53.2341C1352.43 53.4858 1352.19 53.7467 1351.92 54.0168L1350.54 55.5712H1353.96Z" fill="white"/>
<circle cx="1413.38" cy="62.2698" r="15.3058" stroke="white" stroke-width="1.65468"/>
<path d="M1408.99 53C1410.23 53 1411.47 53 1412.71 53C1412.71 53.6819 1412.71 54.3634 1412.71 55.0453C1412.39 55.0872 1412.2 55.2761 1412.2 55.5524C1412.19 55.8361 1412.38 56.0332 1412.71 56.0764C1412.71 56.4156 1412.71 56.7547 1412.71 57.0938C1412.39 57.1357 1412.2 57.3246 1412.2 57.601C1412.19 57.8846 1412.38 58.0817 1412.71 58.1249C1412.71 58.4641 1412.71 58.8032 1412.71 59.1424C1412.39 59.1842 1412.2 59.3732 1412.2 59.6495C1412.19 59.9331 1412.38 60.1302 1412.71 60.1734C1412.71 60.5126 1412.71 60.8517 1412.71 61.1909C1412.39 61.2327 1412.2 61.4217 1412.2 61.698C1412.19 61.9816 1412.38 62.1787 1412.71 62.222C1412.71 62.5611 1412.71 62.9002 1412.71 63.2394C1412.39 63.2813 1412.2 63.4702 1412.2 63.7465C1412.19 64.0301 1412.38 64.2272 1412.71 64.2705C1412.71 64.6096 1412.71 64.9488 1412.71 65.2879C1412.39 65.3298 1412.2 65.5187 1412.2 65.795C1412.19 66.0786 1412.38 66.2757 1412.71 66.319C1412.71 66.6577 1412.71 66.9964 1412.71 67.3346C1412.05 67.3364 1411.4 67.3382 1410.75 67.3396C1410.35 67.3405 1410.15 67.5367 1410.15 67.9332C1410.15 68.7804 1410.15 69.6276 1410.15 70.4752C1409.63 70.4752 1409.12 70.4752 1408.61 70.4752C1408.61 66.0149 1408.61 61.5541 1408.61 57.0938C1408.61 55.9585 1408.62 54.8227 1408.61 53.6874C1408.6 53.3701 1408.69 53.1361 1408.99 53ZM1411.17 55.5629C1411.17 55.2861 1410.94 55.0526 1410.66 55.049C1410.39 55.0458 1410.15 55.2729 1410.15 55.5502C1410.14 55.8338 1410.38 56.0741 1410.66 56.0728C1410.94 56.0714 1411.17 55.8402 1411.17 55.5629ZM1410.66 57.0975C1410.38 57.0988 1410.15 57.3301 1410.15 57.6073C1410.15 57.8846 1410.38 58.1176 1410.65 58.1213C1410.94 58.1249 1411.17 57.8864 1411.17 57.6028C1411.17 57.3256 1410.93 57.0961 1410.66 57.0975ZM1411.17 61.6984C1411.17 61.4212 1410.93 61.1927 1410.65 61.1945C1410.38 61.1963 1410.15 61.4285 1410.15 61.7057C1410.15 61.9893 1410.39 62.2251 1410.67 62.2183C1410.95 62.2115 1411.17 61.9752 1411.17 61.6984ZM1411.17 59.6563C1411.17 59.3791 1410.94 59.1474 1410.66 59.1455C1410.38 59.1437 1410.15 59.3727 1410.15 59.6499C1410.14 59.934 1410.38 60.1721 1410.66 60.1693C1410.94 60.1666 1411.17 59.9335 1411.17 59.6563ZM1410.67 64.2668C1410.94 64.2632 1411.17 64.0292 1411.17 63.7524C1411.17 63.4752 1410.94 63.2439 1410.66 63.243C1410.38 63.2421 1410.14 63.4816 1410.15 63.7656C1410.15 64.0424 1410.39 64.2705 1410.67 64.2668ZM1411.17 65.8059C1411.17 65.5292 1410.94 65.2952 1410.66 65.2915C1410.39 65.2879 1410.15 65.5151 1410.15 65.7923C1410.14 66.0759 1410.38 66.3163 1410.66 66.3153C1410.94 66.3144 1411.17 66.0832 1411.17 65.8059Z" fill="#167952"/>
<path d="M1412.71 59.1424C1412.71 58.8032 1412.71 58.4641 1412.71 58.1249L1412.71 58.1181C1413.01 58.1167 1413.22 57.9082 1413.22 57.6092C1413.22 57.3101 1413.01 57.102 1412.71 57.1007L1412.71 57.0938C1412.71 56.7547 1412.71 56.4156 1412.71 56.0764L1412.71 56.0696C1413.01 56.0682 1413.22 55.8597 1413.22 55.5606C1413.22 55.2616 1413.01 55.0535 1412.71 55.0522L1412.71 55.0453C1412.71 54.3634 1412.71 53.6819 1412.71 53C1413.95 53 1415.19 53 1416.43 53C1416.72 53.1225 1416.81 53.341 1416.81 53.6505C1416.8 54.7991 1416.81 55.9476 1416.81 57.0966C1416.81 57.1193 1416.8 57.1421 1416.8 57.1649C1416.8 61.6019 1416.8 66.0386 1416.81 70.4756C1416.29 70.4756 1415.78 70.4756 1415.27 70.4752C1415.27 69.6007 1415.27 68.7262 1415.27 67.8517C1415.27 67.5668 1415.06 67.3428 1414.78 67.3414C1414.09 67.3387 1413.4 67.3432 1412.71 67.3446L1412.71 67.3346C1412.71 66.9959 1412.71 66.6572 1412.71 66.319L1412.71 66.3122C1413.01 66.3108 1413.22 66.1023 1413.22 65.8032C1413.22 65.5041 1413.01 65.2961 1412.71 65.2947L1412.71 65.2879C1412.71 64.9488 1412.71 64.6096 1412.71 64.2705L1412.71 64.2636C1413.01 64.2623 1413.22 64.0538 1413.22 63.7547C1413.22 63.4556 1413.01 63.2476 1412.71 63.2462L1412.71 63.2394C1412.71 62.9002 1412.71 62.5611 1412.71 62.222L1412.71 62.2151C1413.01 62.2138 1413.22 62.0053 1413.22 61.7062C1413.22 61.4071 1413.01 61.1991 1412.71 61.1977L1412.71 61.1909C1412.71 60.8517 1412.71 60.5126 1412.71 60.1734L1412.71 60.1666C1413.01 60.1652 1413.22 59.9568 1413.22 59.6577C1413.22 59.3586 1413.01 59.1505 1412.71 59.1492L1412.71 59.1424ZM1415.27 55.5675C1415.27 55.2902 1415.04 55.0549 1414.77 55.0485C1414.49 55.0426 1414.25 55.2679 1414.24 55.5447C1414.24 55.8292 1414.47 56.0705 1414.75 56.0723C1415.03 56.0741 1415.26 55.8452 1415.27 55.5675ZM1414.75 58.1213C1415.03 58.1231 1415.26 57.8941 1415.27 57.6169C1415.27 57.3397 1415.04 57.1039 1414.77 57.0975C1414.48 57.0911 1414.24 57.3265 1414.24 57.6101C1414.24 57.8882 1414.47 58.1195 1414.75 58.1213ZM1415.27 61.7116C1415.27 61.4344 1415.04 61.1995 1414.76 61.1945C1414.49 61.1895 1414.25 61.4153 1414.24 61.6921C1414.24 61.9761 1414.47 62.2174 1414.75 62.2179C1415.03 62.2188 1415.26 61.9893 1415.27 61.7116ZM1415.27 59.6636C1415.27 59.3864 1415.04 59.1515 1414.77 59.146C1414.49 59.1405 1414.25 59.3663 1414.24 59.6431C1414.24 59.9272 1414.47 60.1684 1414.75 60.1693C1415.03 60.1707 1415.26 59.9413 1415.27 59.6636ZM1414.75 64.2668C1415.03 64.2677 1415.26 64.0388 1415.27 63.7611C1415.27 63.4838 1415.04 63.2485 1414.77 63.243C1414.48 63.2371 1414.24 63.4729 1414.24 63.757C1414.25 64.0347 1414.48 64.2655 1414.75 64.2668ZM1415.27 65.795C1415.26 65.5178 1415.03 65.2893 1414.75 65.2915C1414.47 65.2934 1414.24 65.526 1414.24 65.8028C1414.24 66.0873 1414.48 66.3217 1414.77 66.3149C1415.04 66.3085 1415.27 66.0727 1415.27 65.795Z" fill="#167952"/>
<path d="M1405.79 70.4746C1405.36 70.4765 1404.94 70.4833 1404.51 70.4783C1404.22 70.4751 1404.01 70.2575 1404 69.9671C1404 69.9275 1404 69.8874 1404 69.8478C1404 65.8081 1404 61.768 1404 57.7283C1404 57.2831 1404.19 57.0974 1404.63 57.0969C1405.96 57.096 1407.28 57.0947 1408.61 57.0938C1408.61 61.554 1408.61 66.0148 1408.61 70.4751C1408.01 70.4751 1407.42 70.4751 1406.82 70.4751C1406.82 70.2648 1406.82 70.0545 1406.82 69.8442C1406.82 69.2018 1406.82 68.56 1406.82 67.9176C1406.82 67.6896 1406.75 67.5048 1406.53 67.3964C1406.18 67.2139 1405.79 67.4697 1405.79 67.9003C1405.79 68.7584 1405.79 69.6165 1405.79 70.4746ZM1406.3 62.2173C1406.57 62.2219 1406.81 61.9933 1406.82 61.7138C1406.82 61.4352 1406.59 61.1985 1406.31 61.194C1406.03 61.1894 1405.8 61.4179 1405.79 61.697C1405.79 61.9751 1406.02 62.2128 1406.3 62.2173ZM1406.82 59.6585C1406.82 59.3794 1406.58 59.1464 1406.31 59.1455C1406.03 59.1445 1405.79 59.3776 1405.79 59.6558C1405.79 59.9339 1406.03 60.1683 1406.3 60.1688C1406.58 60.1697 1406.81 59.9375 1406.82 59.6585ZM1406.3 63.2425C1406.02 63.2466 1405.79 63.4833 1405.79 63.761C1405.8 64.04 1406.03 64.2699 1406.31 64.2658C1406.59 64.2617 1406.82 64.0255 1406.82 63.7469C1406.81 63.4674 1406.58 63.2384 1406.3 63.2425ZM1406.82 65.7949C1406.81 65.515 1406.58 65.2864 1406.3 65.291C1406.02 65.2951 1405.79 65.5323 1405.79 65.8099C1405.8 66.0895 1406.03 66.3184 1406.31 66.3143C1406.59 66.3102 1406.82 66.0735 1406.82 65.7949Z" fill="#3CCB93"/>
<path d="M1411.17 70.4773C1410.83 70.4764 1410.49 70.4755 1410.15 70.4746C1410.15 69.6274 1410.15 68.7802 1410.15 67.9326C1410.15 67.5361 1410.35 67.3399 1410.75 67.339C1411.4 67.3372 1412.05 67.3358 1412.71 67.334L1412.7 67.344C1412.71 68.3874 1412.71 69.4312 1412.71 70.4746C1412.54 70.4755 1412.37 70.4764 1412.2 70.4773C1412.2 69.8468 1412.2 69.2168 1412.19 68.5863C1412.19 68.3332 1412.22 68.366 1411.96 68.3637C1411.78 68.3619 1411.59 68.3619 1411.4 68.3637C1411.14 68.366 1411.17 68.3332 1411.17 68.5863C1411.17 69.2168 1411.17 69.8473 1411.17 70.4773Z" fill="#FEDC54"/>
<path d="M1411.17 55.5628C1411.17 55.84 1410.94 56.0713 1410.66 56.0727C1410.38 56.074 1410.14 55.8337 1410.15 55.5501C1410.15 55.2728 1410.39 55.0457 1410.66 55.0489C1410.94 55.052 1411.17 55.286 1411.17 55.5628Z" fill="white"/>
<path d="M1410.66 57.0977C1410.93 57.0963 1411.17 57.3257 1411.17 57.603C1411.17 57.8866 1410.94 58.1251 1410.65 58.1215C1410.38 58.1183 1410.15 57.8847 1410.15 57.6075C1410.15 57.3298 1410.38 57.099 1410.66 57.0977Z" fill="white"/>
<path d="M1411.17 61.6993C1411.17 61.976 1410.95 62.2128 1410.67 62.2191C1410.39 62.226 1410.15 61.9902 1410.15 61.7065C1410.15 61.4293 1410.38 61.1972 1410.65 61.1953C1410.93 61.1931 1411.17 61.422 1411.17 61.6993Z" fill="white"/>
<path d="M1411.17 59.6573C1411.17 59.9345 1410.94 60.1676 1410.66 60.1703C1410.38 60.1735 1410.14 59.9349 1410.15 59.6509C1410.15 59.3737 1410.38 59.1447 1410.66 59.1465C1410.94 59.1483 1411.17 59.3805 1411.17 59.6573Z" fill="white"/>
<path d="M1410.67 64.266C1410.39 64.2696 1410.15 64.0416 1410.15 63.7648C1410.14 63.4807 1410.38 63.2413 1410.66 63.2422C1410.94 63.2431 1411.17 63.4744 1411.17 63.7516C1411.17 64.0284 1410.94 64.2623 1410.67 64.266Z" fill="white"/>
<path d="M1411.17 65.8055C1411.17 66.0827 1410.94 66.3139 1410.66 66.3149C1410.38 66.3158 1410.14 66.0759 1410.15 65.7918C1410.15 65.5146 1410.39 65.2874 1410.66 65.2911C1410.94 65.2947 1411.17 65.5282 1411.17 65.8055Z" fill="white"/>
<path d="M1412.71 56.076C1412.38 56.0328 1412.19 55.8352 1412.19 55.552C1412.2 55.2762 1412.39 55.0868 1412.71 55.0449L1412.7 55.0518C1412.7 55.3909 1412.7 55.73 1412.7 56.0692L1412.71 56.076Z" fill="white"/>
<path d="M1412.71 58.1248C1412.38 58.0816 1412.19 57.884 1412.19 57.6009C1412.2 57.325 1412.39 57.1356 1412.71 57.0938L1412.7 57.1006C1412.7 57.4397 1412.7 57.7789 1412.7 58.118L1412.71 58.1248Z" fill="white"/>
<path d="M1412.71 66.3182C1412.38 66.2749 1412.19 66.0774 1412.19 65.7942C1412.2 65.5184 1412.39 65.329 1412.71 65.2871L1412.7 65.2939C1412.7 65.6331 1412.7 65.9722 1412.7 66.3114L1412.71 66.3182Z" fill="white"/>
<path d="M1412.71 60.1737C1412.38 60.1304 1412.19 59.9328 1412.19 59.6497C1412.2 59.3738 1412.39 59.1845 1412.71 59.1426L1412.7 59.1494C1412.7 59.4885 1412.7 59.8277 1412.7 60.1668L1412.71 60.1737Z" fill="white"/>
<path d="M1412.71 62.2225C1412.38 62.1792 1412.19 61.9817 1412.19 61.6985C1412.2 61.4227 1412.39 61.2333 1412.71 61.1914L1412.7 61.1982C1412.7 61.5374 1412.7 61.8765 1412.7 62.2157L1412.71 62.2225Z" fill="white"/>
<path d="M1412.71 64.2713C1412.38 64.2281 1412.19 64.0305 1412.19 63.7474C1412.2 63.4715 1412.39 63.2821 1412.71 63.2402L1412.7 63.2471C1412.7 63.5862 1412.7 63.9253 1412.7 64.2645L1412.71 64.2713Z" fill="white"/>
<path d="M1416.81 57.0957C1418.15 57.0962 1419.49 57.0962 1420.83 57.0966C1421.21 57.0966 1421.41 57.2937 1421.41 57.6707C1421.41 61.749 1421.41 65.8278 1421.41 69.9062C1421.41 70.2822 1421.21 70.4807 1420.83 70.4802C1420.43 70.4798 1420.03 70.4766 1419.62 70.4748C1419.62 69.6449 1419.62 68.8155 1419.62 67.9856C1419.62 67.9119 1419.62 67.8372 1419.61 67.7648C1419.57 67.5313 1419.37 67.356 1419.14 67.3401C1418.92 67.3251 1418.7 67.4685 1418.63 67.682C1418.59 67.7748 1418.59 67.8718 1418.59 67.9688C1418.59 68.8041 1418.59 69.6394 1418.59 70.4752C1418 70.4752 1417.4 70.4752 1416.8 70.4757C1416.8 66.0386 1416.8 61.602 1416.8 57.1649C1416.8 57.1412 1416.81 57.1185 1416.81 57.0957ZM1419.62 61.6985C1419.61 61.4199 1419.38 61.1923 1419.11 61.1936C1418.83 61.1955 1418.6 61.4263 1418.6 61.7039C1418.6 61.988 1418.84 62.2238 1419.12 62.217C1419.4 62.2111 1419.62 61.9771 1419.62 61.6985ZM1419.11 60.1694C1419.39 60.168 1419.62 59.9377 1419.62 59.6591C1419.62 59.3809 1419.39 59.1488 1419.11 59.1456C1418.83 59.1424 1418.59 59.38 1418.6 59.6641C1418.6 59.9418 1418.83 60.1707 1419.11 60.1694ZM1419.11 64.2664C1419.39 64.2655 1419.62 64.0356 1419.62 63.757C1419.62 63.4789 1419.39 63.2467 1419.11 63.2431C1418.83 63.2394 1418.59 63.4771 1418.6 63.7607C1418.6 64.0379 1418.83 64.2673 1419.11 64.2664ZM1419.1 66.3149C1419.38 66.3181 1419.61 66.0919 1419.62 65.8133C1419.62 65.5351 1419.4 65.2993 1419.12 65.2916C1418.84 65.2834 1418.6 65.5169 1418.6 65.8014C1418.6 66.0787 1418.82 66.3113 1419.1 66.3149Z" fill="#3CCB93"/>
<path d="M1412.71 70.4745C1412.71 69.4312 1412.71 68.3873 1412.71 67.3439C1413.4 67.3421 1414.09 67.338 1414.78 67.3408C1415.06 67.3417 1415.27 67.5661 1415.27 67.8511C1415.27 68.7256 1415.27 69.6 1415.27 70.4745C1414.93 70.475 1414.58 70.4754 1414.24 70.4754C1414.24 69.8286 1414.24 69.1812 1414.25 68.5344C1414.25 68.4073 1414.22 68.3523 1414.08 68.36C1413.85 68.3723 1413.61 68.3723 1413.38 68.36C1413.24 68.3523 1413.21 68.4073 1413.22 68.5344C1413.22 69.1812 1413.22 69.8286 1413.22 70.4759C1413.05 70.475 1412.88 70.475 1412.71 70.4745Z" fill="#FEB354"/>
<path d="M1415.27 55.5679C1415.26 55.8456 1415.03 56.0741 1414.75 56.0727C1414.47 56.0714 1414.23 55.8297 1414.24 55.5451C1414.25 55.2684 1414.49 55.043 1414.77 55.0489C1415.04 55.0553 1415.27 55.2907 1415.27 55.5679Z" fill="white"/>
<path d="M1414.75 58.1211C1414.47 58.1193 1414.24 57.8881 1414.24 57.6104C1414.24 57.3263 1414.48 57.091 1414.77 57.0978C1415.04 57.1042 1415.27 57.3395 1415.27 57.6172C1415.26 57.894 1415.03 58.1225 1414.75 58.1211Z" fill="white"/>
<path d="M1415.27 61.7121C1415.26 61.9898 1415.03 62.2192 1414.75 62.2188C1414.47 62.2183 1414.24 61.977 1414.24 61.693C1414.25 61.4162 1414.49 61.1899 1414.76 61.1954C1415.04 61.2 1415.27 61.4349 1415.27 61.7121Z" fill="white"/>
<path d="M1415.27 59.6642C1415.26 59.9419 1415.03 60.1708 1414.75 60.1699C1414.47 60.169 1414.24 59.9277 1414.24 59.6437C1414.25 59.3669 1414.49 59.1411 1414.76 59.1466C1415.04 59.152 1415.27 59.3869 1415.27 59.6642Z" fill="white"/>
<path d="M1414.75 64.2661C1414.48 64.2652 1414.24 64.0339 1414.24 63.7562C1414.24 63.4722 1414.48 63.2364 1414.77 63.2423C1415.04 63.2478 1415.27 63.4831 1415.27 63.7603C1415.26 64.038 1415.03 64.267 1414.75 64.2661Z" fill="white"/>
<path d="M1415.27 65.7941C1415.27 66.0713 1415.04 66.3076 1414.77 66.3144C1414.48 66.3212 1414.24 66.0863 1414.24 65.8023C1414.24 65.525 1414.47 65.2929 1414.75 65.291C1415.03 65.2883 1415.26 65.5168 1415.27 65.7941Z" fill="white"/>
<path d="M1412.71 58.117C1412.71 57.7779 1412.71 57.4388 1412.71 57.0996C1413.01 57.101 1413.22 57.309 1413.22 57.6081C1413.22 57.9072 1413.01 58.1152 1412.71 58.117Z" fill="white"/>
<path d="M1412.71 60.1659C1412.71 59.8267 1412.71 59.4876 1412.71 59.1484C1413.01 59.1498 1413.22 59.3578 1413.22 59.6569C1413.22 59.956 1413.01 60.164 1412.71 60.1659Z" fill="white"/>
<path d="M1412.71 62.2147C1412.71 61.8756 1412.71 61.5364 1412.71 61.1973C1413.01 61.1986 1413.22 61.4067 1413.22 61.7058C1413.22 62.0048 1413.01 62.2129 1412.71 62.2147Z" fill="white"/>
<path d="M1412.71 56.0702C1412.71 55.731 1412.71 55.3919 1412.71 55.0527C1413.01 55.0541 1413.22 55.2621 1413.22 55.5612C1413.22 55.8603 1413.01 56.0683 1412.71 56.0702Z" fill="white"/>
<path d="M1412.71 66.3123C1412.71 65.9732 1412.71 65.6341 1412.71 65.2949C1413.01 65.2963 1413.22 65.5043 1413.22 65.8034C1413.22 66.1025 1413.01 66.3105 1412.71 66.3123Z" fill="white"/>
<path d="M1412.71 64.2635C1412.71 63.9244 1412.71 63.5852 1412.71 63.2461C1413.01 63.2475 1413.22 63.4555 1413.22 63.7546C1413.22 64.0537 1413.01 64.2617 1412.71 64.2635Z" fill="white"/>
<path d="M1405.79 70.4758C1405.79 69.6177 1405.79 68.7596 1405.79 67.9015C1405.79 67.4708 1406.18 67.215 1406.53 67.3975C1406.75 67.5054 1406.82 67.6907 1406.82 67.9188C1406.82 68.5611 1406.82 69.203 1406.82 69.8453C1406.82 70.0556 1406.82 70.2659 1406.82 70.4762C1406.48 70.4758 1406.13 70.4758 1405.79 70.4758Z" fill="#F9D858"/>
<path d="M1418.59 70.4741C1418.59 69.6388 1418.59 68.8034 1418.59 67.9676C1418.59 67.8707 1418.59 67.7737 1418.63 67.6808C1418.7 67.4673 1418.92 67.3239 1419.14 67.339C1419.38 67.3544 1419.57 67.5297 1419.61 67.7637C1419.62 67.8361 1419.62 67.9107 1419.62 67.9845C1419.62 68.8144 1419.62 69.6438 1419.62 70.4736C1419.28 70.4741 1418.94 70.4741 1418.59 70.4741Z" fill="#F7B055"/>
<path d="M1413.22 70.476C1413.22 69.8286 1413.22 69.1818 1413.22 68.5344C1413.21 68.4074 1413.24 68.3523 1413.38 68.3601C1413.61 68.3724 1413.85 68.3724 1414.08 68.3601C1414.22 68.3523 1414.25 68.4074 1414.25 68.5344C1414.24 69.1813 1414.24 69.8286 1414.24 70.4755C1413.9 70.476 1413.56 70.476 1413.22 70.476Z" fill="white"/>
<path d="M1411.17 70.4783C1411.17 69.8478 1411.17 69.2177 1411.17 68.5873C1411.17 68.3341 1411.14 68.3669 1411.4 68.3646C1411.59 68.3628 1411.78 68.3628 1411.96 68.3646C1412.22 68.3669 1412.19 68.3341 1412.19 68.5873C1412.2 69.2177 1412.2 69.8478 1412.2 70.4783C1411.85 70.4783 1411.51 70.4783 1411.17 70.4783Z" fill="white"/>
<path d="M1406.3 62.2183C1406.02 62.2137 1405.79 61.9761 1405.79 61.6984C1405.8 61.4194 1406.04 61.1904 1406.31 61.1954C1406.59 61.1999 1406.82 61.4367 1406.82 61.7153C1406.81 61.9948 1406.58 62.2228 1406.3 62.2183Z" fill="white"/>
<path d="M1406.82 59.6591C1406.82 59.9381 1406.58 60.1703 1406.3 60.1698C1406.03 60.1694 1405.79 59.9349 1405.79 59.6568C1405.79 59.3782 1406.03 59.1456 1406.31 59.1465C1406.59 59.1465 1406.82 59.38 1406.82 59.6591Z" fill="white"/>
<path d="M1406.3 63.2422C1406.58 63.2381 1406.81 63.4671 1406.82 63.7466C1406.82 64.0252 1406.59 64.2615 1406.31 64.2656C1406.03 64.2697 1405.8 64.0403 1405.79 63.7607C1405.79 63.4831 1406.02 63.2463 1406.3 63.2422Z" fill="white"/>
<path d="M1406.82 65.795C1406.82 66.0736 1406.59 66.3099 1406.31 66.3144C1406.03 66.319 1405.8 66.0895 1405.79 65.81C1405.79 65.5323 1406.02 65.2952 1406.3 65.2911C1406.58 65.287 1406.81 65.5155 1406.82 65.795Z" fill="white"/>
<path d="M1419.62 61.6997C1419.62 61.9779 1419.4 62.2123 1419.12 62.2187C1418.84 62.225 1418.6 61.9897 1418.6 61.7056C1418.6 61.4279 1418.83 61.1967 1419.11 61.1953C1419.38 61.1935 1419.61 61.4211 1419.62 61.6997Z" fill="white"/>
<path d="M1419.11 60.1703C1418.83 60.1717 1418.6 59.9427 1418.6 59.665C1418.59 59.3814 1418.83 59.1433 1419.11 59.1465C1419.39 59.1497 1419.62 59.3819 1419.62 59.66C1419.62 59.9386 1419.39 60.169 1419.11 60.1703Z" fill="white"/>
<path d="M1419.11 64.266C1418.83 64.2669 1418.6 64.038 1418.6 63.7598C1418.59 63.4762 1418.83 63.2386 1419.11 63.2422C1419.39 63.2459 1419.62 63.478 1419.62 63.7562C1419.62 64.0348 1419.39 64.2651 1419.11 64.266Z" fill="white"/>
<path d="M1419.1 66.3146C1418.82 66.3114 1418.6 66.0783 1418.6 65.8011C1418.6 65.5166 1418.84 65.283 1419.12 65.2912C1419.4 65.299 1419.62 65.5348 1419.62 65.8129C1419.61 66.0915 1419.38 66.3178 1419.1 66.3146Z" fill="white"/>
<circle cx="1425.37" cy="48.6187" r="6.61871" fill="#3CCB93"/>
<rect x="588.992" y="41" width="339" height="37" rx="10" fill="#585173"/>
<path d="M913.075 66.1003L909.559 62.5847C910.509 61.15 910.892 59.4138 910.634 57.7127C910.376 56.0117 909.495 54.467 908.163 53.3785C906.831 52.2899 905.141 51.7349 903.423 51.8212C901.705 51.9075 900.08 52.6289 898.863 53.8455C897.647 55.0621 896.925 56.6872 896.839 58.4055C896.753 60.1239 897.307 61.813 898.396 63.1454C899.485 64.4777 901.029 65.3583 902.73 65.6163C904.431 65.8744 906.168 65.4914 907.602 64.5418L911.118 68.0574C911.379 68.3095 911.729 68.449 912.091 68.4459C912.454 68.4427 912.801 68.2971 913.058 68.0405C913.315 67.7839 913.46 67.4368 913.463 67.0739C913.467 66.711 913.327 66.3613 913.075 66.1003V66.1003ZM899.64 58.7744C899.64 57.9531 899.883 57.1503 900.339 56.4675C900.796 55.7847 901.444 55.2525 902.203 54.9382C902.962 54.6239 903.797 54.5417 904.602 54.7019C905.407 54.8621 906.147 55.2576 906.728 55.8383C907.309 56.419 907.704 57.1588 907.864 57.9643C908.025 58.7698 907.942 59.6046 907.628 60.3634C907.314 61.1221 906.782 61.7706 906.099 62.2268C905.416 62.6831 904.613 62.9266 903.792 62.9266C902.691 62.9266 901.635 62.4891 900.856 61.7104C900.077 60.9317 899.64 59.8756 899.64 58.7744V58.7744Z" fill="white"/>
</svg>
